<svg xmlns="http://www.w3.org/2000/svg" viewBox="0 0 28.07 28.08"><defs><style>.cls-1{fill:#dcdbdb;}</style></defs><title>facebook</title><g id="Layer_2" data-name="Layer 2"><g id="Layer_1-2" data-name="Layer 1"><path class="cls-1" d="M14,28.08H13.7c-3,0-6,0-8.95,0A4.83,4.83,0,0,1,0,23.36V4.75A4.84,4.84,0,0,1,4.75,0H23.28a4.84,4.84,0,0,1,4.79,4.8V23.27a4.84,4.84,0,0,1-4.83,4.81H18.42V17.48h4.64c0-.1,0-.18,0-.26,0-1.38,0-2.76,0-4.15,0-.23-.07-.29-.3-.29H18.44a1.55,1.55,0,0,1,0-.17c0-.58,0-1.16,0-1.74a2,2,0,0,1,.23-.76.82.82,0,0,1,.79-.45h3.63c0-.11,0-.2,0-.28,0-1.37,0-2.74,0-4.12,0-.24-.08-.3-.32-.3-1.07,0-2.14,0-3.2,0a5,5,0,0,0-4.3,2.21A6.28,6.28,0,0,0,14,11v1.8H10.61v4.69H14Z"/></g></g></svg>