<svg xmlns="http://www.w3.org/2000/svg" viewBox="0 0 28.08 28.08"><defs><style>.instagram-1{fill:#dcdbdb;}</style></defs><title>instagram</title><g id="Layer_2" data-name="Layer 2"><g id="Layer_1-2" data-name="Layer 1"><path class="instagram-1" d="M20.9,28.08H7.19C6.9,28,6.61,28,6.33,28a7.66,7.66,0,0,1-6.1-5.79C.12,21.75.07,21.32,0,20.9V7.19c.05-.29.08-.58.14-.86A7.63,7.63,0,0,1,5.93.23C6.34.12,6.77.07,7.19,0H20.9c.29.05.58.08.86.14a7.64,7.64,0,0,1,6.09,5.79,10.74,10.74,0,0,1,.23,1.26V20.9c0,.29-.07.58-.13.86a7.66,7.66,0,0,1-5.79,6.09A10.74,10.74,0,0,1,20.9,28.08ZM14,25.59c2,0,4.08,0,6.12,0A5.52,5.52,0,0,0,22,25.31a5.25,5.25,0,0,0,3.57-5.15c0-4.07,0-8.15,0-12.23a5.77,5.77,0,0,0-.28-1.85,5.19,5.19,0,0,0-5.13-3.59c-4.09,0-8.17,0-12.26,0a6.18,6.18,0,0,0-1.82.28,5.19,5.19,0,0,0-3.6,5.1q0,6.17,0,12.34a5.2,5.2,0,0,0,2.22,4.39,5.27,5.27,0,0,0,3.22,1Z"/><path class="instagram-1" d="M21.28,14A7.24,7.24,0,1,1,14,6.8,7.28,7.28,0,0,1,21.28,14Zm-2.5,0A4.74,4.74,0,1,0,14,18.78,4.74,4.74,0,0,0,18.78,14.05Z"/><path class="instagram-1" d="M21.62,4.7a1.82,1.82,0,1,1-1.86,1.79A1.83,1.83,0,0,1,21.62,4.7Z"/></g></g></svg>