<svg xmlns="http://www.w3.org/2000/svg" viewBox="0 0 124.87 38.47"><defs><style>.cls-1{fill:#dcdbdb;}</style></defs><title>logonav</title><g id="Layer_2" data-name="Layer 2"><g id="Layer_1-2" data-name="Layer 1"><path class="cls-1" d="M5.07,30.87H6.66v7.55H5.07v-.84l.38-1.18H5.14a2.49,2.49,0,0,1-2.63,2C.15,38.24,0,36.05,0,35V34.2c0-1.06.15-3.26,2.51-3.4a2.59,2.59,0,0,1,2.63,2h.31l-.38-1.16Zm0,2.76a1.67,1.67,0,0,0-1.68-1.36c-1.19,0-1.65.82-1.75,1.94V35c.1,1.1.55,1.94,1.74,1.94A1.66,1.66,0,0,0,5.07,35.6Z"/><path class="cls-1" d="M15.58,16.09c0,2.51-.35,7.59-5.85,7.93-3.09.21-5.18-2-6.11-4.64H2.9l.89,2.72v1.95H.08V0H4V6.32L2.9,11.68h.75A10,10,0,0,1,4,10.17c.92-2.68,2.47-4.09,5.73-3.85,5.5.42,5.88,5.47,5.85,7.93ZM11.8,14.27c-.25-2.58-1.29-4.52-4.06-4.52-3,0-3.91,2.65-3.91,5.16l0,2.57a3.88,3.88,0,0,0,3.92,3.13c2.78,0,3.88-1.92,4.09-4.53Z"/><path class="cls-1" d="M20.7,24.61a2,2,0,0,1-1.45-.69,3.6,3.6,0,0,1-1-1.57,2.34,2.34,0,0,1,0-1.63L22,12.47a1.84,1.84,0,0,0,.23-.89.31.31,0,0,0-.31-.32h0a2.2,2.2,0,0,0-.82.38,13.47,13.47,0,0,0-1.24.84,8.84,8.84,0,0,0-.94.78,1.43,1.43,0,0,1-.84.46c-.21,0-.32-.11-.32-.35a1.44,1.44,0,0,1,.21-.75,6.93,6.93,0,0,1,.48-.72,17.86,17.86,0,0,1,2.39-2.45A11.6,11.6,0,0,1,23.33,7.8a5.91,5.91,0,0,1,2.51-.61,1.65,1.65,0,0,1,1.09.51,3.18,3.18,0,0,1,.82,1.19,1.45,1.45,0,0,1,0,1.22c-.51,1.09-1.12,2.41-1.83,4s-1.53,3.3-2.45,5.28a2.12,2.12,0,0,0-.24,1c0,.29.17.43.43.43s.65-.28,1.14-.83,1.07-1.27,1.71-2.12,1.29-1.73,2-2.61c.49-.62,1-1.27,1.44-1.94s.9-1.33,1.3-2,.76-1.2,1-1.69c.45-.67.84-1.24,1.19-1.69a1.49,1.49,0,0,1,1.18-.68,2.12,2.12,0,0,1,1.33.43,2.49,2.49,0,0,1,.85,1,1.46,1.46,0,0,1,.08,1.14L33,19.89a1.29,1.29,0,0,0-.09.58c0,.18.07.28.21.28a2.84,2.84,0,0,0,1.11-.49,17.18,17.18,0,0,0,1.67-1.16,15.71,15.71,0,0,0,1.38-1.19c.08-.08.13-.12.16-.12a.5.5,0,0,1,.35.18.59.59,0,0,1,.15.4,2,2,0,0,1-.54,1.19A11.91,11.91,0,0,1,36,21a16.42,16.42,0,0,1-1.83,1.4,14.83,14.83,0,0,1-1.91,1.07,4.63,4.63,0,0,1-1.67.47,1.7,1.7,0,0,1-1.09,0,2.8,2.8,0,0,1-1-.5,3.37,3.37,0,0,1-.66-.7,1.14,1.14,0,0,1-.1-.45,1.15,1.15,0,0,1,.14-.6c.2-.47.45-1,.72-1.57s.55-1.22.83-1.89.57-1.38.86-2.1c.08-.24.05-.36-.08-.38s-.26.07-.38.25c-.75,1-1.52,2.07-2.31,3.08a28.45,28.45,0,0,1-2.39,2.73,13.77,13.77,0,0,1-2.31,2A3.92,3.92,0,0,1,20.7,24.61Z"/><path class="cls-1" d="M47,20.33v3.74H45.18c-5,0-5-3.81-5-3.81V0h3.91L44,18.34s-.07,2,1.51,2Z"/><path class="cls-1" d="M61.92,15.88H50.64v.35c0,1.27.28,4.5,3.68,4.53A3.39,3.39,0,0,0,58,17.25h3.89c0,7.21-7.5,6.91-7.5,6.91-6.56-.11-7.62-5.54-7.59-7.93V14.31c0-2.41,1.31-8,7.59-8,0,0,7.5-.31,7.5,6.64Zm-11.21-3H58a3.36,3.36,0,0,0-3.67-3.24A3.42,3.42,0,0,0,50.71,12.9Z"/><path class="cls-1" d="M76.48,6.47,73,24.06H65.73L62.24,6.47H66l3,13.88h.75l3-13.88Z"/><path class="cls-1" d="M88.1,6.43h3.71V24.06H88.1v-2L89,19.35l-.73,0c-.92,2.64-2.6,4.88-6.11,4.64-5.53-.35-5.88-5.47-5.88-7.93V14.24c0-2.47.35-7.59,5.88-8,3.3-.21,5.19,2,6.11,4.67H89L88.1,8.23Zm0,6.42a3.91,3.91,0,0,0-3.91-3.16c-2.79,0-3.85,1.93-4.09,4.53v1.85c.24,2.58,1.27,4.54,4,4.54a3.88,3.88,0,0,0,4-3.16Z"/><path class="cls-1" d="M102.77,10.21c-3.85-.48-6.11.79-6.11,4.4l0,4.47v5H92.94V6.43h3.92l-1.1,5h.72c.59-3.64,2.72-5.35,6-5.15a1.22,1.22,0,0,0,.38,0Z"/><path class="cls-1" d="M102.91,14.28c0-2.47.34-7.52,5.84-7.92,3.3-.24,4.81,1.17,5.74,3.85.14.48.27,1,.38,1.51h.72l-1.1-5.36V0h3.92v24h-3.72v-2l.9-2.71h-.72c-.93,2.64-3,4.84-6.12,4.64-5.5-.35-5.84-5.43-5.84-7.93Zm3.77,1.82c.21,2.62,1.31,4.54,4.09,4.54a3.9,3.9,0,0,0,3.92-3.13l0-2.58c0-2.47-.9-5.15-3.89-5.15-2.78,0-3.84,1.92-4.09,4.5Z"/><path class="cls-1" d="M123,24.54a1.93,1.93,0,0,1-1.89-1.88A1.91,1.91,0,0,1,123,20.77a1.89,1.89,0,0,1,1.89,1.89,1.84,1.84,0,0,1-.55,1.32A1.78,1.78,0,0,1,123,24.54Z"/><path class="cls-1" d="M11.37,32.49c-1.65-.2-2.62.34-2.62,1.89v4H7.18V30.87H8.85L8.39,33h.3a2.3,2.3,0,0,1,2.6-2.21h.16Z"/><path class="cls-1" d="M16.74,32.34h-2.2V36c0,.46.28.87,1.36.87h.85v1.6h-1.4a2.44,2.44,0,0,1-.85-.13,2.33,2.33,0,0,1-1.58-2.49V32.34H12V30.9h.93V28.75H14.6V30.9h2.17Z"/><path class="cls-1" d="M27.38,33.16h0v5.28H25.85v-.81l.36-1.13h-.3c-.29,1-.68,2-2.06,2a2.56,2.56,0,0,1-2.8-2.78,2.85,2.85,0,0,1,.18-1,2,2,0,0,1,1.63-1.23,5.32,5.32,0,0,1,.69,0v-.31a4,4,0,0,1-.69-.06,2,2,0,0,1-1.62-1.16,2.87,2.87,0,0,1-.19-1.05c0-1,.55-2.69,3.17-2.71h.34v1.39a1.34,1.34,0,0,0-.4,0c-1.09.08-1.49.75-1.49,1.32V31a1.52,1.52,0,0,0,1.51,1.51h1.63V30.82H27.4v2.34Zm-1.59.89H24.22a1.57,1.57,0,0,0-1.56,1.51v.13a1.28,1.28,0,0,0,1,1.25,3,3,0,0,0,.52.08h.06c1.29,0,1.54-.8,1.54-1.33Z"/><path class="cls-1" d="M38.31,33.11a2.37,2.37,0,0,1,2.62-2.31c2.79.19,2.51,3.19,2.51,3.87v3.75H41.85V34.88s.19-2.23-1.25-2.55a2.22,2.22,0,0,0-.51-.06c-1,0-1.63.74-1.67,2a.38.38,0,0,0,0,.15v4H36.81V34.49c0-1.17-.44-2.22-1.75-2.22-1,0-1.69.79-1.69,2.22v3.93H31.78V30.9h1.69L33,33.12h.33a2.36,2.36,0,0,1,2.62-2.31,3.45,3.45,0,0,1,.9.2,2.32,2.32,0,0,1,1.23,2.11Z"/><path class="cls-1" d="M50.35,34.92H45.52v.13c0,.55.12,1.93,1.58,2a1.47,1.47,0,0,0,1.59-1.32v-.19h1.66c0,3.09-3.21,3-3.21,3a3.15,3.15,0,0,1-3.25-3.4v-.83a3.24,3.24,0,0,1,3.25-3.44s3.21-.13,3.21,2.84Zm-4.8-1.28h3.14a1.44,1.44,0,0,0-1.5-1.39h-.08A1.48,1.48,0,0,0,45.55,33.64Z"/><path class="cls-1" d="M50.91,34.23c0-1.06.15-3.23,2.51-3.4a2.11,2.11,0,0,1,2.45,1.65c.06.21.12.41.17.65h.31l-.48-2.3V28.12h1.68V38.43H56v-.84l.38-1.16H56a2.62,2.62,0,0,1-2.62,2c-2.35-.14-2.5-2.32-2.5-3.39Zm1.62.78c.09,1.13.56,1.94,1.75,1.94A1.66,1.66,0,0,0,56,35.61v-1.1c0-1.06-.37-2.21-1.66-2.21s-1.65.82-1.75,1.93Z"/><path class="cls-1" d="M58.12,28.77h2.1v1.44h-2.1Zm.23,2.1H60v7.55H58.35Z"/><path class="cls-1" d="M65.73,30.87h1.59v7.55H65.73v-.84l.38-1.18H65.8a2.5,2.5,0,0,1-2.63,2c-2.36-.15-2.51-2.34-2.51-3.4V34.2c0-1.06.15-3.26,2.51-3.4a2.59,2.59,0,0,1,2.63,2h.31l-.38-1.16Zm0,2.76a1.68,1.68,0,0,0-1.68-1.36c-1.19,0-1.65.82-1.75,1.94V35c.1,1.1.54,1.94,1.74,1.94a1.66,1.66,0,0,0,1.69-1.35Z"/><path class="cls-1" d="M71.6,28.77h2.11v1.44H71.6Zm.24,2.1h1.62v7.55H71.84Z"/><path class="cls-1" d="M75.4,33.11h.33a2.37,2.37,0,0,1,2.62-2.31c2.78.19,2.5,3.19,2.5,3.87v3.75H79.23V34.88s.2-2.23-1.25-2.55a3.93,3.93,0,0,0-.48-.06c-1,0-1.71.79-1.71,2.22v3.93H74.2V30.9h1.69Z"/><path class="cls-1" d="M87.2,38.42H81.46V36.94h4a.37.37,0,0,0,.35-.38v-1a.38.38,0,0,0-.35-.36h-4V30.87H87.2v1.35H83.14a.29.29,0,0,0-.28.28v.92a.37.37,0,0,0,.38.35h4Z"/><path class="cls-1" d="M92.45,32.34h-2.2V36c0,.46.28.87,1.36.87h.84v1.6h-1.4a2.44,2.44,0,0,1-.85-.13,2.32,2.32,0,0,1-1.58-2.49V32.34h-.93V30.9h.93V28.75H90.3V30.9h2.15Z"/><path class="cls-1" d="M92.8,28.77h2.1v1.44H92.8Zm.23,2.1h1.62v7.55H93Z"/><path class="cls-1" d="M100,32.34h-2.2V36c0,.46.28.87,1.36.87H100v1.6h-1.4a2.44,2.44,0,0,1-.85-.13,2.33,2.33,0,0,1-1.58-2.49V32.34h-.93V30.9h.93V28.75h1.68V30.9h2.17Z"/><path class="cls-1" d="M106,36.11h-.3c-.25,1.59-1.17,2.41-2.62,2.3-2.78-.18-2.5-3.18-2.5-3.86V30.9h1.61v3.46s-.2,2.23,1.25,2.55a3.93,3.93,0,0,0,.48.06c1.05,0,1.71-.8,1.71-2.23V30.91h1.59v7.55h-1.7Z"/><path class="cls-1" d="M112.37,32.34h-2.2V36c0,.46.28.87,1.36.87h.85v1.6H111a2.49,2.49,0,0,1-.86-.13,2.33,2.33,0,0,1-1.58-2.49V32.34h-.93V30.9h.93V28.75h1.68V30.9h2.17Z"/><path class="cls-1" d="M118.94,34.92H114.1v.13c0,.55.13,1.93,1.58,2a1.46,1.46,0,0,0,1.59-1.31,1.33,1.33,0,0,0,0-.2h1.67c0,3.09-3.22,3-3.22,3a3.15,3.15,0,0,1-3.25-3.4v-.83a3.24,3.24,0,0,1,3.25-3.44s3.22-.13,3.22,2.84Zm-4.81-1.28h3.14a1.44,1.44,0,0,0-1.5-1.39h-.07a1.48,1.48,0,0,0-1.57,1.39Z"/></g></g></svg>